<svg width="94" height="34" viewBox="0 0 94 34" fill="none" xmlns="http://www.w3.org/2000/svg">
<path fill-rule="evenodd" clip-rule="evenodd" d="M28.771 6.5C28.2809 6.5 27.7958 6.59704 27.3434 6.78552L25.0352 7.74728C24.7231 7.87732 24.816 8.34211 25.1541 8.34211H68.8449C69.183 8.34211 69.276 7.87732 68.9639 7.74728L66.6557 6.78552C66.2033 6.59704 65.7181 6.5 65.2281 6.5H28.771ZM24.4497 9.3291C24.4497 8.98745 24.7267 8.71048 25.0684 8.71048H68.9307C69.2724 8.71048 69.5493 8.98745 69.5493 9.3291V14.355C69.5493 14.6967 69.2724 14.9736 68.9307 14.9736H25.0684C24.7267 14.9736 24.4497 14.6967 24.4497 14.355V9.3291ZM27.8836 10.8029C27.8836 10.4612 28.1605 10.1842 28.5022 10.1842H30.5807C30.9224 10.1842 31.1994 10.4612 31.1994 10.8029V12.8814C31.1994 13.2231 30.9224 13.5 30.5807 13.5H28.5022C28.1605 13.5 27.8836 13.2231 27.8836 12.8814V10.8029ZM20.1103 13.2275H24.1308V14.6484C24.1308 14.8111 24.1936 14.9592 24.2963 15.0696H16.4935C16.1554 15.0696 16.0624 14.6048 16.3745 14.4748L18.6827 13.513C19.1351 13.3245 19.6203 13.2275 20.1103 13.2275ZM77.5056 15.0696H69.7028C69.8055 14.9592 69.8683 14.8111 69.8683 14.6484V13.2275H73.8888C74.3788 13.2275 74.864 13.3245 75.3164 13.513L77.6246 14.4748C77.9367 14.6048 77.8437 15.0696 77.5056 15.0696ZM14.9469 16.0566C14.9469 15.7149 15.2239 15.438 15.5655 15.438H78.4335C78.7752 15.438 79.0522 15.7149 79.0522 16.0566V21.0825C79.0522 21.4242 78.7752 21.7011 78.4335 21.7011H15.5655C15.2239 21.7011 14.9469 21.4242 14.9469 21.0825V16.0566ZM16.0524 17.5304C16.0524 17.1887 16.3294 16.9117 16.6711 16.9117H18.7496C19.0913 16.9117 19.3682 17.1887 19.3682 17.5304V19.6089C19.3682 19.9506 19.0913 20.2275 18.7496 20.2275H16.6711C16.3294 20.2275 16.0524 19.9506 16.0524 19.6089V17.5304ZM12 16.0567C12 15.715 12.277 15.4381 12.6186 15.4381H13.9603C14.302 15.4381 14.5789 15.715 14.5789 16.0567V21.0826C14.5789 21.4242 14.302 21.7012 13.9603 21.7012H12.6186C12.277 21.7012 12 21.4242 12 21.0826V16.0567ZM12.737 16.7277C12.737 16.4225 12.9844 16.1751 13.2897 16.1751C13.5949 16.1751 13.8423 16.4225 13.8423 16.7277C13.8423 17.0329 13.5949 17.2803 13.2897 17.2803C12.9844 17.2803 12.737 17.0329 12.737 16.7277ZM13.2897 19.859C12.9844 19.859 12.737 20.1064 12.737 20.4116C12.737 20.7169 12.9844 20.9643 13.2897 20.9643C13.5949 20.9643 13.8423 20.7169 13.8423 20.4116C13.8423 20.1064 13.5949 19.859 13.2897 19.859ZM79.4211 16.0567C79.4211 15.715 79.698 15.4381 80.0397 15.4381H81.3814C81.723 15.4381 82 15.715 82 16.0567V21.0826C82 21.4242 81.723 21.7012 81.3814 21.7012H80.0397C79.698 21.7012 79.4211 21.4242 79.4211 21.0826V16.0567ZM80.1581 16.7277C80.1581 16.4225 80.4055 16.1751 80.7107 16.1751C81.0159 16.1751 81.2633 16.4225 81.2633 16.7277C81.2633 17.0329 81.0159 17.2803 80.7107 17.2803C80.4055 17.2803 80.1581 17.0329 80.1581 16.7277ZM80.7107 19.859C80.4055 19.859 80.1581 20.1064 80.1581 20.4116C80.1581 20.7169 80.4055 20.9643 80.7107 20.9643C81.0159 20.9643 81.2633 20.7169 81.2633 20.4116C81.2633 20.1064 81.0159 19.859 80.7107 19.859ZM14.9469 22.8614C14.9469 22.5198 15.2239 22.2428 15.5655 22.2428H78.4335C78.7752 22.2428 79.0522 22.5198 79.0522 22.8614V27.8873C79.0522 28.229 78.7752 28.506 78.4335 28.506H15.5655C15.2239 28.506 14.9469 28.229 14.9469 27.8873V22.8614ZM16.0524 24.3352C16.0524 23.9935 16.3294 23.7166 16.6711 23.7166H18.7496C19.0913 23.7166 19.3682 23.9935 19.3682 24.3352V26.4137C19.3682 26.7554 19.0913 27.0323 18.7496 27.0323H16.6711C16.3294 27.0323 16.0524 26.7554 16.0524 26.4137V24.3352ZM12 22.8615C12 22.5198 12.277 22.2429 12.6186 22.2429H13.9603C14.302 22.2429 14.5789 22.5198 14.5789 22.8615V27.8874C14.5789 28.2291 14.302 28.506 13.9603 28.506H12.6186C12.277 28.506 12 28.2291 12 27.8874V22.8615ZM12.737 23.5325C12.737 23.2273 12.9844 22.9799 13.2897 22.9799C13.5949 22.9799 13.8423 23.2273 13.8423 23.5325C13.8423 23.8377 13.5949 24.0852 13.2897 24.0852C12.9844 24.0852 12.737 23.8377 12.737 23.5325ZM13.2897 26.6638C12.9844 26.6638 12.737 26.9113 12.737 27.2165C12.737 27.5217 12.9844 27.7691 13.2897 27.7691C13.5949 27.7691 13.8423 27.5217 13.8423 27.2165C13.8423 26.9113 13.5949 26.6638 13.2897 26.6638ZM79.4211 22.8615C79.4211 22.5198 79.698 22.2429 80.0397 22.2429H81.3814C81.723 22.2429 82 22.5198 82 22.8615V27.8874C82 28.2291 81.723 28.506 81.3814 28.506H80.0397C79.698 28.506 79.4211 28.2291 79.4211 27.8874V22.8615ZM80.1581 23.5325C80.1581 23.2273 80.4055 22.9799 80.7107 22.9799C81.0159 22.9799 81.2633 23.2273 81.2633 23.5325C81.2633 23.8377 81.0159 24.0852 80.7107 24.0852C80.4055 24.0852 80.1581 23.8377 80.1581 23.5325ZM80.7107 26.6638C80.4055 26.6638 80.1581 26.9113 80.1581 27.2165C80.1581 27.5217 80.4055 27.7691 80.7107 27.7691C81.0159 27.7691 81.2633 27.5217 81.2633 27.2165C81.2633 26.9113 81.0159 26.6638 80.7107 26.6638ZM62.3559 23.348H62.7244V23.3481H64.5658V23.348H64.9342V23.3481H66.7769V23.348H67.1453V23.3481H69.3555V27.4007H57.9635V23.3481H60.2524V23.348H60.6208V23.3481H62.3559V23.348ZM66.7769 23.9667H64.9342V25.1903H66.7769V23.9667ZM64.5658 23.9667V25.1903H62.7244V23.9667H64.5658ZM64.5658 25.5587H62.7244V26.7821H64.5658V25.5587ZM62.3559 23.9667V25.1903H60.6208V23.9667H62.3559ZM62.3559 25.5587H60.6208V26.7821H62.3559V25.5587ZM60.2524 23.9667V25.1903H58.5821V23.9667H60.2524ZM60.2524 25.5587H58.5821V26.7821H60.2524V25.5587ZM66.7769 25.5587H64.9342V26.7821H66.7769V25.5587ZM67.1453 26.7821V25.5587H68.7369V26.7821H67.1453ZM68.7369 23.9667V25.1903H67.1453V23.9667H68.7369ZM48.2484 23.9667H49.9835V25.1903H48.2484V23.9667ZM50.352 23.9667V25.1903H52.1934V23.9667H50.352ZM50.352 26.7821V25.5587H52.1934V26.7821H50.352ZM49.9835 26.7821V25.5587H48.2484V26.7821H49.9835ZM47.88 26.7821V25.5587H46.2097V26.7821H47.88ZM47.88 23.9667V25.1903H46.2097V23.9667H47.88ZM52.5618 26.7821V25.5587H54.4045V26.7821H52.5618ZM52.5618 23.9667V25.1903H54.4045V23.9667H52.5618ZM54.7729 23.9667V25.1903H56.3645V23.9667H54.7729ZM54.7729 26.7821V25.5587H56.3645V26.7821H54.7729ZM47.88 23.3481H45.5911V27.4007H56.9831V23.3481H54.7729V23.348H54.4045V23.3481H52.5618V23.348H52.1934V23.3481H50.352V23.348H49.9835V23.3481H48.2484V23.348H47.88V23.3481ZM35.876 23.9667H37.6111V25.1903H35.876V23.9667ZM37.9795 23.9667V25.1903H39.821V23.9667H37.9795ZM37.9795 26.7821V25.5587H39.821V26.7821H37.9795ZM37.6111 26.7821V25.5587H35.876V26.7821H37.6111ZM35.5076 26.7821V25.5587H33.8373V26.7821H35.5076ZM35.5076 23.9667V25.1903H33.8373V23.9667H35.5076ZM40.1894 26.7821V25.5587H42.0321V26.7821H40.1894ZM40.1894 23.9667V25.1903H42.0321V23.9667H40.1894ZM42.4005 23.9667V25.1903H43.992V23.9667H42.4005ZM42.4005 26.7821V25.5587H43.992V26.7821H42.4005ZM35.5076 23.3481H33.2187V27.4007H44.6107V23.3481H42.4005V23.348H42.0321V23.3481H40.1894V23.348H39.821V23.3481H37.9795V23.348H37.6111V23.3481H35.876V23.348H35.5076V23.3481ZM23.5036 23.9667H25.2387V25.1903H23.5036V23.9667ZM25.6071 23.9667V25.1903H27.4486V23.9667H25.6071ZM25.6071 26.7821V25.5587H27.4486V26.7821H25.6071ZM25.2387 26.7821V25.5587H23.5036V26.7821H25.2387ZM23.1352 26.7821V25.5587H21.4649V26.7821H23.1352ZM23.1352 23.9667V25.1903H21.4649V23.9667H23.1352ZM27.817 26.7821V25.5587H29.6597V26.7821H27.817ZM27.817 23.9667V25.1903H29.6597V23.9667H27.817ZM30.0281 23.9667V25.1903H31.6196V23.9667H30.0281ZM30.0281 26.7821V25.5587H31.6196V26.7821H30.0281ZM23.1352 23.3481H20.8463V27.4007H32.2383V23.3481H30.0281V23.348H29.6597V23.3481H27.817V23.348H27.4486V23.3481H25.6071V23.348H25.2387V23.3481H23.5036V23.348H23.1352V23.3481ZM74.1448 23.9667H75.4865V25.1904H74.1448V23.9667ZM76.1051 25.5588V25.1904V23.348H73.5261V25.1904V25.5588V27.4007H76.1051V25.5588ZM74.1448 26.7821V25.5588H75.4865V26.7821H74.1448ZM71.0517 23.9667H72.3934V25.1904H71.0517V23.9667ZM73.012 25.5588V25.1904V23.348H70.433V25.1904V25.5588V27.4007H73.012V25.5588ZM71.0517 26.7821V25.5588H72.3934V26.7821H71.0517ZM21.4726 18.1765H23.1636V18.7951H21.4726V18.1765ZM23.532 18.7951V18.1765H25.2901V18.7951H23.532ZM25.6585 18.7951H27.4746V18.1765H25.6585V18.7951ZM29.679 18.7951H27.843V18.1765H29.679V18.7951ZM30.0474 18.7951H31.6412V18.1765H30.0474V18.7951ZM20.854 19.4137V17.5578H32.2598V19.4137H20.854ZM35.5167 18.1765H33.8257V18.7951H35.5167V18.1765ZM35.8851 18.1765V18.7951H37.6432V18.1765H35.8851ZM39.8277 18.7951H38.0116V18.1765H39.8277V18.7951ZM40.1961 18.7951H42.0321V18.1765H40.1961V18.7951ZM43.9943 18.7951H42.4005V18.1765H43.9943V18.7951ZM33.2071 17.5578V19.4137H44.6129V17.5578H33.2071ZM46.1788 18.1765H47.8698V18.7951H46.1788V18.1765ZM48.2382 18.7951V18.1765H49.9963V18.7951H48.2382ZM50.3647 18.7951H52.1808V18.1765H50.3647V18.7951ZM54.3852 18.7951H52.5492V18.1765H54.3852V18.7951ZM54.7536 18.7951H56.3474V18.1765H54.7536V18.7951ZM45.5602 19.4137V17.5578H56.966V19.4137H45.5602ZM60.2615 18.1765H58.5705V18.7951H60.2615V18.1765ZM60.6299 18.1765V18.7951H62.388V18.1765H60.6299ZM64.5725 18.7951H62.7564V18.1765H64.5725V18.7951ZM64.9409 18.7951H66.7769V18.1765H64.9409V18.7951ZM68.7391 18.7951H67.1453V18.1765H68.7391V18.7951ZM57.9519 17.5578V19.4137H69.3577V17.5578H57.9519ZM71.0535 18.1765H72.2908V18.7951H71.0535V18.1765ZM70.4349 19.4137V17.5578H72.9094V19.4137H70.4349ZM74.1466 18.1765H75.3839V18.7951H74.1466V18.1765ZM73.528 19.4137V17.5578H76.0025V19.4137H73.528ZM49.7063 11.449H47.8902V12.0676H49.7063V11.449ZM50.0747 11.449V12.0676H51.9107V11.449H50.0747ZM53.8729 12.0676H52.2791V11.449H53.8729V12.0676ZM45.7637 11.449H47.5218V12.0676H45.7637V11.449ZM43.5792 11.449H45.3953V12.0676H43.5792V11.449ZM43.2108 11.449H41.3947V12.0676H43.2108V11.449ZM39.2102 11.449H41.0263V12.0676H39.2102V11.449ZM38.8418 11.449H36.8995V12.0676H38.8418V11.449ZM36.2809 10.8303V12.6862H54.4915V10.8303H36.2809ZM61.9536 11.449H63.1908V12.0676H61.9536V11.449ZM61.335 12.6862V10.8303H63.8095V12.6862H61.335ZM60.0977 11.449H58.8605V12.0676H60.0977V11.449ZM58.2419 10.8303V12.6862H60.7164V10.8303H58.2419Z" fill="#4C4C4C"/>
</svg>
