<svg width="135" height="35" viewBox="0 0 135 35" fill="none" xmlns="http://www.w3.org/2000/svg">
<path fill-rule="evenodd" clip-rule="evenodd" d="M96.4235 4.09111C96.6285 4.45522 96.3232 4.84932 95.9053 4.84932H81.9867C81.5688 4.84932 81.2635 4.45522 81.4686 4.09111C82.4782 2.29842 85.4442 1 88.946 1C92.4478 1 95.4138 2.29841 96.4235 4.09111ZM82.3953 5.14542C81.6796 5.14542 81.0993 5.72566 81.0993 6.44143V22.7054C81.0993 25.9264 83.7104 28.5374 86.9314 28.5374H90.9607C94.1816 28.5374 96.7927 25.9264 96.7927 22.7054V6.44143C96.7927 5.72566 96.2125 5.14542 95.4967 5.14542H82.3953ZM89.0941 13.4363C88.6035 13.4363 88.2058 13.834 88.2058 14.3246V15.8051C88.2058 16.2957 88.6035 16.6934 89.0941 16.6934C89.5847 16.6934 89.9824 16.2957 89.9824 15.8051V14.3246C89.9824 13.834 89.5847 13.4363 89.0941 13.4363ZM36.0006 18.6157H80.3747V20.7736H31.7638C31.3677 20.7736 31.2588 20.2291 31.6244 20.0768L34.3283 18.9502C34.8582 18.7294 35.4266 18.6157 36.0006 18.6157ZM97.5174 18.6157V20.7736H103.235C103.631 20.7736 103.74 20.2291 103.375 20.0768L100.671 18.9502C100.141 18.7294 99.5723 18.6157 98.9983 18.6157H97.5174ZM30.6768 21.2051H80.3747V22.7054C80.3747 24.4534 81.0587 26.0417 82.1737 27.2171V27.2473H82.2025C82.7039 27.7692 83.2909 28.2083 83.9409 28.542H30.6768C30.2765 28.542 29.9521 28.2175 29.9521 27.8173V21.9298C29.9521 21.5296 30.2765 21.2051 30.6768 21.2051ZM104.322 28.542H93.9512C94.6011 28.2083 95.188 27.7692 95.6894 27.2474H98.1425V24.6579H97.2217C97.4139 24.0412 97.5174 23.3854 97.5174 22.7054V21.2051H104.322C104.722 21.2051 105.047 21.5296 105.047 21.9298V27.8173C105.047 28.2175 104.722 28.542 104.322 28.542ZM97.4178 26.5227H96.2922C96.547 26.1675 96.7671 25.7858 96.9477 25.3826H97.4178V26.5227ZM31.9718 22.9315C31.5716 22.9315 31.2472 23.256 31.2472 23.6562V26.0911C31.2472 26.4913 31.5716 26.8157 31.9718 26.8157H34.4067C34.8069 26.8157 35.1314 26.4913 35.1314 26.0911V23.6562C35.1314 23.256 34.8069 22.9315 34.4067 22.9315H31.9718ZM27.2247 21.2052C26.8244 21.2052 26.5 21.5296 26.5 21.9298V27.8173C26.5 28.2176 26.8244 28.542 27.2247 28.542H28.7964C29.1966 28.542 29.5211 28.2176 29.5211 27.8173V21.9298C29.5211 21.5296 29.1966 21.2052 28.7964 21.2052H27.2247ZM28.0107 22.0685C27.6532 22.0685 27.3634 22.3584 27.3634 22.7159C27.3634 23.0734 27.6532 23.3633 28.0107 23.3633C28.3683 23.3633 28.6581 23.0734 28.6581 22.7159C28.6581 22.3584 28.3683 22.0685 28.0107 22.0685ZM27.3634 27.0314C27.3634 26.6738 27.6532 26.384 28.0107 26.384C28.3683 26.384 28.6581 26.6738 28.6581 27.0314C28.6581 27.3889 28.3683 27.6787 28.0107 27.6787C27.6532 27.6787 27.3634 27.3889 27.3634 27.0314ZM105.479 21.9298C105.479 21.5296 105.803 21.2052 106.204 21.2052H107.775C108.176 21.2052 108.5 21.5296 108.5 21.9298V27.8173C108.5 28.2176 108.176 28.542 107.775 28.542H106.204C105.803 28.542 105.479 28.2176 105.479 27.8173V21.9298ZM106.342 22.7159C106.342 22.3584 106.632 22.0685 106.99 22.0685C107.347 22.0685 107.637 22.3584 107.637 22.7159C107.637 23.0734 107.347 23.3633 106.99 23.3633C106.632 23.3633 106.342 23.0734 106.342 22.7159ZM106.99 26.384C106.632 26.384 106.342 26.6738 106.342 27.0314C106.342 27.3889 106.632 27.6787 106.99 27.6787C107.347 27.6787 107.637 27.3889 107.637 27.0314C107.637 26.6738 107.347 26.384 106.99 26.384ZM62.1829 23.2245H79.2915V26.5225H62.1829V23.2245ZM61.4582 27.2472V22.4998H80.0161V27.2472H61.4582ZM99.2982 23.2245H100.87V24.658H99.2982V23.2245ZM101.595 25.0896V24.658V22.4998H98.5735V24.658V25.0896V27.2472H101.595V25.0896ZM99.2982 26.5225V25.0896H100.87V26.5225H99.2982Z" fill="#4C4C4C"/>
</svg>
