<svg width="87" height="38" viewBox="0 0 87 38" fill="none" xmlns="http://www.w3.org/2000/svg">
<path fill-rule="evenodd" clip-rule="evenodd" d="M39.7584 1.16472C39.7584 0.854904 40.0095 0.603845 40.3192 0.603845H46.7355C47.0452 0.603845 47.2963 0.854904 47.2963 1.16472V2.27005H39.7584V1.16472ZM47.9001 1.16472V2.27005H56.5756H57.8157H59.3794H60.6465V2.85642H60.7712V2.6597C60.7712 2.61189 60.8098 2.57335 60.8574 2.57335H61.3252C61.3728 2.57335 61.4114 2.61189 61.4114 2.6597V3.38339C61.4114 3.4312 61.3728 3.46974 61.3252 3.46974H60.8574C60.8098 3.46974 60.7712 3.4312 60.7712 3.38339V3.18667H60.6465V3.6989V3.8775H60.7038V3.68078C60.7038 3.65551 60.7146 3.63276 60.7319 3.61696L60.7351 3.61402L60.7432 3.60812L60.7484 3.60496C60.7607 3.59822 60.7749 3.59443 60.79 3.59443H61.2578C61.285 3.59443 61.3093 3.60707 61.3251 3.62686C61.337 3.64161 61.344 3.66035 61.344 3.68078V4.40447C61.344 4.41289 61.3429 4.4209 61.3408 4.42848L61.3363 4.44049C61.3318 4.45039 61.3254 4.45923 61.3176 4.46681C61.3021 4.48177 61.2811 4.49082 61.2578 4.49082H60.79C60.7424 4.49082 60.7038 4.45228 60.7038 4.40447V4.20775H60.6465V4.69639V5.96347V18.2083C60.3002 17.8889 59.8636 17.6659 59.3794 17.582V16.9787L59.3659 17.2459L57.8157 17.2843V17.545H56.5756V17.3148L54.9985 17.3538L55.012 17.1381L56.1038 17.0572V15.7901L56.5756 15.7693V14.4752L56.3869 14.5096L54.9446 14.4287L56.1038 14.1321V13.0538L56.5756 12.9343V11.6022L56.2521 11.7193H54.9715L56.1712 11.1397V10.1556L56.5756 9.97093V8.78577L56.1847 9.00987H54.9581L56.1173 8.18761V7.50015L56.5756 7.21224V5.96347H30.4251V7.24615L30.8295 7.50015V8.18761L31.9888 9.00987H30.7621L30.4251 8.81673V9.99557L30.7756 10.1556V11.1397L31.9753 11.7193H30.6947L30.4251 11.6216V12.948L30.843 13.0538V14.1321L32.0022 14.4287L30.5599 14.5096L30.4251 14.4849V15.7716L30.843 15.7901V17.0572L31.9348 17.1381L31.9483 17.3538L30.4251 17.3163V18.5884L30.8026 18.5265V19.834H32.0022L30.4251 20.4385V21.4027L30.843 21.2494V22.5839H31.9888L30.4251 23.5165V23.5679H33.1583V24.835H32.679L32.7975 25.1517V25.1585H33.1583V26.5064H32.7975V28.5309C32.7975 28.6265 32.7202 28.7036 32.625 28.7036H32.5912V26.5671L32.5904 26.5254L32.5896 26.5064H32.3303L32.3321 26.5393L32.3325 26.5671V29.9774C32.3325 30.4277 31.9674 30.793 31.517 30.793C31.0666 30.793 30.7015 30.4277 30.7015 29.9774V28.7036V26.5671L30.7025 26.5241L30.7037 26.5064H30.4443L30.4429 26.538L30.4426 26.5671V28.7036H30.4089C30.3808 28.7036 30.3543 28.6969 30.3308 28.6851V31.0381C30.3308 31.1337 30.2535 31.2108 30.1583 31.2108H30.1245V29.0743C30.1245 28.4812 29.6435 28.0001 29.0502 28.0001C28.4568 28.0001 27.9758 28.4812 27.9758 29.0743V31.2108H27.9421C27.9063 31.2108 27.8731 31.1999 27.8455 31.1813C27.7998 31.1502 27.7696 31.0979 27.7696 31.0381V27.787L28.1247 26.5064H27.6214H26.3812V25.9571H26.2397V26.1539C26.2397 26.2015 26.2011 26.2402 26.1535 26.2402H25.6857C25.6381 26.2402 25.5994 26.2015 25.5994 26.1539V25.4302C25.5994 25.3826 25.6381 25.3438 25.6857 25.3438H26.1535C26.1833 25.3438 26.2095 25.359 26.225 25.3821C26.2301 25.3897 26.2341 25.3982 26.2366 25.4074L26.2383 25.415C26.2392 25.4201 26.2397 25.4251 26.2397 25.4302V25.6269H26.3812V25.1585V24.9596H26.2835V25.1564C26.2835 25.204 26.2449 25.2427 26.1973 25.2427H25.7295C25.6819 25.2427 25.6432 25.204 25.6432 25.1564V24.4327C25.6432 24.3851 25.6819 24.3463 25.7295 24.3463H26.1973C26.2449 24.3463 26.2835 24.3851 26.2835 24.4327V24.6294H26.3812V23.5679V5.96347V4.69639V4.20438H26.2936V4.4011C26.2936 4.42322 26.2853 4.44343 26.2717 4.4586C26.2559 4.47629 26.233 4.48745 26.2074 4.48745H25.7396C25.692 4.48745 25.6533 4.44891 25.6533 4.4011V3.67741C25.6533 3.6296 25.692 3.59106 25.7396 3.59106H26.2074C26.255 3.59106 26.2936 3.6296 26.2936 3.67741V3.87413H26.3812V3.6989V3.18667H26.2262V3.38339C26.2262 3.4312 26.1876 3.46974 26.14 3.46974H25.6722C25.6246 3.46974 25.5859 3.4312 25.5859 3.38339V2.6597C25.5859 2.61189 25.6246 2.57335 25.6722 2.57335H26.14C26.1876 2.57335 26.2262 2.61189 26.2262 2.6597V2.85642H26.3812V2.27005H27.6214H29.185H30.4251H39.1546V1.16472C39.1546 0.521493 39.6759 0 40.3192 0H46.7355C47.3787 0 47.9001 0.521493 47.9001 1.16472ZM29.8992 26.5064H30.2364V27.407L29.8992 26.5064ZM27.6214 25.1585H29.185V24.835H27.6214V25.1585ZM30.4251 3.6989H39.8743V4.69639H30.4251V3.6989ZM40.3124 4.69639V3.6989H46.7018V4.69639H40.3124ZM47.1399 4.69639H56.5756V3.6989H47.1399V4.69639ZM57.8157 5.96347V6.43337L58.5639 5.96347H57.8157ZM57.8157 9.40436V8.07514L59.3794 7.17896V8.69015L57.8157 9.40436ZM57.8157 12.6207V11.1529L59.3794 10.5866V12.2252L57.8157 12.6207ZM57.8157 15.7141V14.2492L59.3794 13.9643V15.6448L57.8157 15.7141ZM57.8157 3.6989V4.69639H59.3794V3.6989H57.8157ZM29.185 3.6989H27.6214V4.69639H29.185V3.6989ZM29.185 5.96347H28.383L29.185 6.46728V5.96347ZM29.185 8.1061L27.6214 7.20992V8.71479L29.185 9.429V8.1061ZM29.185 11.1725L27.6214 10.6062V12.2389L29.185 12.6344V11.1725ZM29.185 14.2591L27.6214 13.9742V15.6473L29.185 15.7166V14.2591ZM29.185 17.2855L27.6214 17.247V19.0484L29.185 18.7919V17.2855ZM29.185 20.6967H28.1875L27.6214 20.4743V22.4322L29.185 21.8581V20.6967ZM28.2585 28.878C28.2429 28.9408 28.2347 29.0069 28.2347 29.0743V31.2108V32.4847C28.2347 32.935 28.5998 33.3002 29.0502 33.3002C29.5006 33.3002 29.8657 32.935 29.8657 32.4847V29.0743C29.8657 28.624 29.5006 28.2588 29.0502 28.2588C28.6675 28.2588 28.3464 28.5225 28.2585 28.878ZM33.8592 12.7314C33.8592 11.7098 34.6877 10.8808 35.7098 10.8808H51.5556C52.5777 10.8808 53.4063 11.7098 53.4063 12.7314V17.545H52.6519C51.2682 17.545 50.1464 18.6667 50.1464 20.0505V31.3842C50.1464 32.1316 50.4738 32.8026 50.9928 33.2616H35.7098C34.6877 33.2616 33.8592 32.4327 33.8592 31.411V25.5833H34.7672C34.9214 25.5833 35.0609 25.5206 35.1615 25.4194C35.2609 25.3182 35.3224 25.1797 35.3224 25.0279V19.1158C35.3224 18.8086 35.0738 18.5604 34.7672 18.5604H33.8592V12.7314ZM34.7672 25.1508H33.8592V18.9917H34.7672C34.8201 18.9917 34.8652 19.0254 34.8827 19.0724C34.8877 19.0857 34.8905 19.1001 34.8905 19.1158V25.0279C34.8905 25.0761 34.864 25.1158 34.8249 25.1363C34.8077 25.1459 34.788 25.1508 34.7672 25.1508ZM50.8473 20.0505C50.8473 19.054 51.6552 18.2461 52.6517 18.2461H58.9482C59.9447 18.2461 60.7526 19.054 60.7526 20.0505V25.2794H50.8473V20.0505ZM50.8473 25.52H60.7526V31.3842C60.7526 32.3807 59.9447 33.1886 58.9482 33.1886H52.6517C51.6552 33.1886 50.8473 32.3807 50.8473 31.3842V25.52ZM55.8 29.2039C54.8969 29.2039 54.1647 28.4718 54.1647 27.5687H53.864C53.864 28.6379 54.7308 29.5047 55.8 29.5047C56.8691 29.5047 57.7359 28.6379 57.7359 27.5687H57.4352C57.4352 28.4718 56.703 29.2039 55.8 29.2039Z" fill="#8E8E8E"/>
<path fill-rule="evenodd" clip-rule="evenodd" d="M39.7584 1.16472C39.7584 0.854904 40.0095 0.603845 40.3192 0.603845H46.7355C47.0452 0.603845 47.2963 0.854904 47.2963 1.16472V2.27005H39.7584V1.16472ZM47.9001 1.16472V2.27005H56.5756H57.8157H59.3794H60.6465V2.85642H60.7712V2.6597C60.7712 2.61189 60.8098 2.57335 60.8574 2.57335H61.3252C61.3728 2.57335 61.4114 2.61189 61.4114 2.6597V3.38339C61.4114 3.4312 61.3728 3.46974 61.3252 3.46974H60.8574C60.8098 3.46974 60.7712 3.4312 60.7712 3.38339V3.18667H60.6465V3.6989V3.8775H60.7038V3.68078C60.7038 3.65551 60.7146 3.63276 60.7319 3.61696L60.7351 3.61402L60.7432 3.60812L60.7484 3.60496C60.7607 3.59822 60.7749 3.59443 60.79 3.59443H61.2578C61.285 3.59443 61.3093 3.60707 61.3251 3.62686C61.337 3.64161 61.344 3.66035 61.344 3.68078V4.40447C61.344 4.41289 61.3429 4.4209 61.3408 4.42848L61.3363 4.44049C61.3318 4.45039 61.3254 4.45923 61.3176 4.46681C61.3021 4.48177 61.2811 4.49082 61.2578 4.49082H60.79C60.7424 4.49082 60.7038 4.45228 60.7038 4.40447V4.20775H60.6465V4.69639V5.96347V18.2083C60.3002 17.8889 59.8636 17.6659 59.3794 17.582V16.9787L59.3659 17.2459L57.8157 17.2843V17.545H56.5756V17.3148L54.9985 17.3538L55.012 17.1381L56.1038 17.0572V15.7901L56.5756 15.7693V14.4752L56.3869 14.5096L54.9446 14.4287L56.1038 14.1321V13.0538L56.5756 12.9343V11.6022L56.2521 11.7193H54.9715L56.1712 11.1397V10.1556L56.5756 9.97093V8.78577L56.1847 9.00987H54.9581L56.1173 8.18761V7.50015L56.5756 7.21224V5.96347H30.4251V7.24615L30.8295 7.50015V8.18761L31.9888 9.00987H30.7621L30.4251 8.81673V9.99557L30.7756 10.1556V11.1397L31.9753 11.7193H30.6947L30.4251 11.6216V12.948L30.843 13.0538V14.1321L32.0022 14.4287L30.5599 14.5096L30.4251 14.4849V15.7716L30.843 15.7901V17.0572L31.9348 17.1381L31.9483 17.3538L30.4251 17.3163V18.5884L30.8026 18.5265V19.834H32.0022L30.4251 20.4385V21.4027L30.843 21.2494V22.5839H31.9888L30.4251 23.5165V23.5679H33.1583V24.835H32.679L32.7975 25.1517V25.1585H33.1583V26.5064H32.7975V28.5309C32.7975 28.6265 32.7202 28.7036 32.625 28.7036H32.5912V26.5671L32.5904 26.5254L32.5896 26.5064H32.3303L32.3321 26.5393L32.3325 26.5671V29.9774C32.3325 30.4277 31.9674 30.793 31.517 30.793C31.0666 30.793 30.7015 30.4277 30.7015 29.9774V28.7036V26.5671L30.7025 26.5241L30.7037 26.5064H30.4443L30.4429 26.538L30.4426 26.5671V28.7036H30.4089C30.3808 28.7036 30.3543 28.6969 30.3308 28.6851V31.0381C30.3308 31.1337 30.2535 31.2108 30.1583 31.2108H30.1245V29.0743C30.1245 28.4812 29.6435 28.0001 29.0502 28.0001C28.4568 28.0001 27.9758 28.4812 27.9758 29.0743V31.2108H27.9421C27.9063 31.2108 27.8731 31.1999 27.8455 31.1813C27.7998 31.1502 27.7696 31.0979 27.7696 31.0381V27.787L28.1247 26.5064H27.6214H26.3812V25.9571H26.2397V26.1539C26.2397 26.2015 26.2011 26.2402 26.1535 26.2402H25.6857C25.6381 26.2402 25.5994 26.2015 25.5994 26.1539V25.4302C25.5994 25.3826 25.6381 25.3438 25.6857 25.3438H26.1535C26.1833 25.3438 26.2095 25.359 26.225 25.3821C26.2301 25.3897 26.2341 25.3982 26.2366 25.4074L26.2383 25.415C26.2392 25.4201 26.2397 25.4251 26.2397 25.4302V25.6269H26.3812V25.1585V24.9596H26.2835V25.1564C26.2835 25.204 26.2449 25.2427 26.1973 25.2427H25.7295C25.6819 25.2427 25.6432 25.204 25.6432 25.1564V24.4327C25.6432 24.3851 25.6819 24.3463 25.7295 24.3463H26.1973C26.2449 24.3463 26.2835 24.3851 26.2835 24.4327V24.6294H26.3812V23.5679V5.96347V4.69639V4.20438H26.2936V4.4011C26.2936 4.42322 26.2853 4.44343 26.2717 4.4586C26.2559 4.47629 26.233 4.48745 26.2074 4.48745H25.7396C25.692 4.48745 25.6533 4.44891 25.6533 4.4011V3.67741C25.6533 3.6296 25.692 3.59106 25.7396 3.59106H26.2074C26.255 3.59106 26.2936 3.6296 26.2936 3.67741V3.87413H26.3812V3.6989V3.18667H26.2262V3.38339C26.2262 3.4312 26.1876 3.46974 26.14 3.46974H25.6722C25.6246 3.46974 25.5859 3.4312 25.5859 3.38339V2.6597C25.5859 2.61189 25.6246 2.57335 25.6722 2.57335H26.14C26.1876 2.57335 26.2262 2.61189 26.2262 2.6597V2.85642H26.3812V2.27005H27.6214H29.185H30.4251H39.1546V1.16472C39.1546 0.521493 39.6759 0 40.3192 0H46.7355C47.3787 0 47.9001 0.521493 47.9001 1.16472ZM29.8992 26.5064H30.2364V27.407L29.8992 26.5064ZM27.6214 25.1585H29.185V24.835H27.6214V25.1585ZM30.4251 3.6989H39.8743V4.69639H30.4251V3.6989ZM40.3124 4.69639V3.6989H46.7018V4.69639H40.3124ZM47.1399 4.69639H56.5756V3.6989H47.1399V4.69639ZM57.8157 5.96347V6.43337L58.5639 5.96347H57.8157ZM57.8157 9.40436V8.07514L59.3794 7.17896V8.69015L57.8157 9.40436ZM57.8157 12.6207V11.1529L59.3794 10.5866V12.2252L57.8157 12.6207ZM57.8157 15.7141V14.2492L59.3794 13.9643V15.6448L57.8157 15.7141ZM57.8157 3.6989V4.69639H59.3794V3.6989H57.8157ZM29.185 3.6989H27.6214V4.69639H29.185V3.6989ZM29.185 5.96347H28.383L29.185 6.46728V5.96347ZM29.185 8.1061L27.6214 7.20992V8.71479L29.185 9.429V8.1061ZM29.185 11.1725L27.6214 10.6062V12.2389L29.185 12.6344V11.1725ZM29.185 14.2591L27.6214 13.9742V15.6473L29.185 15.7166V14.2591ZM29.185 17.2855L27.6214 17.247V19.0484L29.185 18.7919V17.2855ZM29.185 20.6967H28.1875L27.6214 20.4743V22.4322L29.185 21.8581V20.6967ZM28.2585 28.878C28.2429 28.9408 28.2347 29.0069 28.2347 29.0743V31.2108V32.4847C28.2347 32.935 28.5998 33.3002 29.0502 33.3002C29.5006 33.3002 29.8657 32.935 29.8657 32.4847V29.0743C29.8657 28.624 29.5006 28.2588 29.0502 28.2588C28.6675 28.2588 28.3464 28.5225 28.2585 28.878ZM33.8592 12.7314C33.8592 11.7098 34.6877 10.8808 35.7098 10.8808H51.5556C52.5777 10.8808 53.4063 11.7098 53.4063 12.7314V17.545H52.6519C51.2682 17.545 50.1464 18.6667 50.1464 20.0505V31.3842C50.1464 32.1316 50.4738 32.8026 50.9928 33.2616H35.7098C34.6877 33.2616 33.8592 32.4327 33.8592 31.411V25.5833H34.7672C34.9214 25.5833 35.0609 25.5206 35.1615 25.4194C35.2609 25.3182 35.3224 25.1797 35.3224 25.0279V19.1158C35.3224 18.8086 35.0738 18.5604 34.7672 18.5604H33.8592V12.7314ZM34.7672 25.1508H33.8592V18.9917H34.7672C34.8201 18.9917 34.8652 19.0254 34.8827 19.0724C34.8877 19.0857 34.8905 19.1001 34.8905 19.1158V25.0279C34.8905 25.0761 34.864 25.1158 34.8249 25.1363C34.8077 25.1459 34.788 25.1508 34.7672 25.1508ZM50.8473 20.0505C50.8473 19.054 51.6552 18.2461 52.6517 18.2461H58.9482C59.9447 18.2461 60.7526 19.054 60.7526 20.0505V25.2794H50.8473V20.0505ZM50.8473 25.52H60.7526V31.3842C60.7526 32.3807 59.9447 33.1886 58.9482 33.1886H52.6517C51.6552 33.1886 50.8473 32.3807 50.8473 31.3842V25.52ZM55.8 29.2039C54.8969 29.2039 54.1647 28.4718 54.1647 27.5687H53.864C53.864 28.6379 54.7308 29.5047 55.8 29.5047C56.8691 29.5047 57.7359 28.6379 57.7359 27.5687H57.4352C57.4352 28.4718 56.703 29.2039 55.8 29.2039Z" fill="#4C4C4C"/>
</svg>
