<svg width="20" height="20" viewBox="0 0 20 20" fill="none" xmlns="http://www.w3.org/2000/svg">
<path fill-rule="evenodd" clip-rule="evenodd" d="M18.0001 4.39933C18.0001 4.62333 17.8241 4.79933 17.6001 4.79933H2.40012C2.17612 4.79933 2.00012 4.62333 2.00012 4.39933C2.00012 4.17533 2.17612 3.99933 2.40012 3.99933H17.6001C17.8241 3.99933 18.0001 4.17533 18.0001 4.39933ZM18.0001 9.99924C18.0001 10.2232 17.8241 10.3992 17.6001 10.3992H2.40012C2.17612 10.3992 2.00012 10.2232 2.00012 9.99924C2.00012 9.77524 2.17612 9.59924 2.40012 9.59924H17.6001C17.8241 9.59924 18.0001 9.77524 18.0001 9.99924ZM17.6001 15.9992C17.8241 15.9992 18.0001 15.8232 18.0001 15.5992C18.0001 15.3752 17.8241 15.1992 17.6001 15.1992H2.40012C2.17612 15.1992 2.00012 15.3752 2.00012 15.5992C2.00012 15.8232 2.17612 15.9992 2.40012 15.9992H17.6001Z" fill="#212327"/>
</svg>
