<svg width="51" height="38" viewBox="0 0 51 38" fill="none" xmlns="http://www.w3.org/2000/svg">
<path fill-rule="evenodd" clip-rule="evenodd" d="M28.6532 7.38151C28.6578 7.46757 28.693 7.55235 28.7589 7.618L33.3964 12.2557C33.3776 12.285 33.3676 12.3182 33.3661 12.352C33.3638 12.4049 33.3827 12.4588 33.4232 12.4992L35.0825 14.1585V14.279H35.0743C35.0444 14.279 35.016 14.2857 34.9907 14.2978C34.9666 14.3089 34.9453 14.3252 34.9279 14.3446C34.8971 14.3791 34.8785 14.4246 34.8785 14.4747V18.0654V18.1036V28.958H38.2646V18.0654C38.2646 18.0278 38.2633 17.9902 38.2609 17.9532V14.4747C38.2609 14.4294 38.2455 14.3877 38.2195 14.3545C38.1852 14.3105 38.1328 14.2818 38.0734 14.2793V14.1317L39.7058 12.4992C39.7315 12.4734 39.7486 12.4422 39.757 12.4094C39.7627 12.387 39.7645 12.3638 39.7623 12.3411C39.7592 12.3112 39.7494 12.2819 39.7326 12.2557L44.3702 7.618C44.403 7.58517 44.4282 7.54756 44.4457 7.50741C44.4575 7.48063 44.466 7.4529 44.4709 7.42454C44.4734 7.4102 44.475 7.39585 44.4758 7.38151C44.4792 7.31968 44.4666 7.25721 44.4384 7.20048C44.4213 7.16637 44.3985 7.1345 44.3702 7.10613C44.2288 6.96462 43.9997 6.96462 43.8582 7.10613L39.2179 11.7464C39.2023 11.7378 39.1857 11.7317 39.1688 11.7279C39.1288 11.719 39.0866 11.7225 39.0485 11.7388C39.0262 11.7483 39.0051 11.7623 38.987 11.7805L37.114 13.6533C37.0895 13.6779 37.0727 13.7075 37.064 13.7387C37.0456 13.8047 37.0622 13.8783 37.114 13.9303L37.4627 14.279H37.4522C37.3991 14.279 37.351 14.3 37.3157 14.3341C37.2791 14.3698 37.2563 14.4195 37.2563 14.4747V16.2006L37.2506 16.2321C37.2479 16.2439 37.2445 16.2563 37.2405 16.2697C37.2372 16.2809 37.2332 16.2923 37.2287 16.3041C37.2096 16.3545 37.1798 16.4109 37.1349 16.4683C36.9586 16.4061 36.769 16.3723 36.5715 16.3723L36.5151 16.3733L36.486 16.3746L36.4405 16.3771L36.3951 16.3816C36.3664 16.3845 36.3381 16.388 36.31 16.3924C36.2413 16.4029 36.1739 16.4176 36.1083 16.4364C36.0734 16.4463 36.0391 16.4571 36.0053 16.4692C35.9248 16.3669 35.8925 16.2678 35.8831 16.2006V14.4747C35.8831 14.3666 35.7954 14.279 35.6872 14.279H35.6638L36.015 13.9303C36.0914 13.8538 36.0914 13.7298 36.015 13.6533L34.1421 11.7805C34.0796 11.718 33.9853 11.7066 33.9112 11.7464L29.2709 7.10613C29.1294 6.96462 28.9002 6.96462 28.7589 7.10613C28.6832 7.18167 28.6479 7.28239 28.6532 7.38151ZM34.8785 30.1003V29.2844H38.2646V30.1003C38.2646 31.0355 37.5065 31.7934 36.5715 31.7934C35.6366 31.7934 34.8785 31.0355 34.8785 30.1003ZM28.0014 7.41625C27.9957 7.30725 28.0075 7.19729 28.0368 7.09115H23.4555C22.7345 7.09115 22.15 7.67569 22.15 8.39664V12.2482C25.7806 13.9789 28.2896 17.6829 28.2896 21.9728C28.2896 26.2311 25.8176 29.9119 22.2305 31.6587C22.2628 31.7175 22.3039 31.7707 22.3521 31.8167C22.4692 31.9285 22.6279 31.9974 22.8027 31.9974H34.6949C34.8278 31.9974 34.9513 31.9579 35.0544 31.8896C34.5475 31.4594 34.2257 30.8175 34.2257 30.1003V14.9317V14.8578V14.7867V14.4747C34.2257 14.3985 34.2359 14.3246 34.2549 14.2541L32.9617 12.9607C32.8938 12.8929 32.8399 12.8164 32.7999 12.7351C32.7644 12.6627 32.7399 12.5862 32.7262 12.5085L28.2978 8.08015C28.1136 7.89625 28.0143 7.65657 28.0014 7.41625ZM30.3942 7.30661L30.1789 7.09115H34.0422C34.1448 7.09115 34.2445 7.10295 34.3403 7.12526C34.9175 7.26008 35.3476 7.77832 35.3476 8.39664V12.0629L34.6036 11.319C34.482 11.1973 34.3327 11.1204 34.1759 11.0879L30.3942 7.30661ZM27.9947 25.4505C27.9737 25.477 27.9609 25.5101 27.9609 25.5464C27.9609 25.6309 28.0295 25.6994 28.1139 25.6994H29.3837C29.4424 25.6994 29.4934 25.6666 29.519 25.6178C29.5303 25.5965 29.5367 25.5723 29.5367 25.5464C29.5367 25.462 29.4682 25.3935 29.3837 25.3935H28.1139C28.0658 25.3935 28.0228 25.4158 27.9947 25.4505ZM27.5472 21.9764C27.5472 27.5123 23.0595 32 17.5236 32C11.9877 32 7.5 27.5123 7.5 21.9764C7.5 16.4405 11.9877 11.9528 17.5236 11.9528C23.0595 11.9528 27.5472 16.4405 27.5472 21.9764ZM17.5236 24.8403C19.1053 24.8403 20.3875 23.5581 20.3875 21.9764C20.3875 20.3947 19.1053 19.1125 17.5236 19.1125C15.9419 19.1125 14.6597 20.3947 14.6597 21.9764C14.6597 23.5581 15.9419 24.8403 17.5236 24.8403ZM17.5236 25.7949C19.6325 25.7949 21.3421 24.0853 21.3421 21.9764C21.3421 19.8675 19.6325 18.1579 17.5236 18.1579C15.4147 18.1579 13.7051 19.8675 13.7051 21.9764C13.7051 24.0853 15.4147 25.7949 17.5236 25.7949Z" fill="#4C4C4C"/>
</svg>
